# xmcd
#
# Track frame offsets: 
#        150
#        18030
#        40063
#        65686
#        88737
#        105121
#        128919
#        161435
#
# Disc length: 2335 seconds
#
# Revision: 2
# Processed by: cddbd v1.5.2PL0 Copyright (c) Steve Scherf et al.
# Submitted via: ExactAudioCopy v0.99pb5
#
DISCID=56091d08
DTITLE=Brooklyn Sounds - Libre - Free
DYEAR=2001
DGENRE=Salsa
TTITLE0=Libre
TTITLE1=Chango Santero
TTITLE2=Lagrimas Negras Con Loiza Aldea
TTITLE3=Esta Vida
TTITLE4=Guangunaco Tropical
TTITLE5=Ha Llegado El Momento
TTITLE6=Las Margaritas
TTITLE7=Calma Tu Llanto
EXTD=YEAR: 2001
EXTT0=
EXTT1=
EXTT2=
EXTT3=
EXTT4=
EXTT5=
EXTT6=
EXTT7=
PLAYORDER=
